<?xml version="1.0" encoding="utf-8"?>
<!-- Generator: Adobe Illustrator 21.0.0, SVG Export Plug-In . SVG Version: 6.00 Build 0)  -->
<svg version="1.1" id="icon" xmlns="http://www.w3.org/2000/svg" xmlns:xlink="http://www.w3.org/1999/xlink" x="0px" y="0px"
	 viewBox="0 0 16 16" style="enable-background:new 0 0 16 16;" xml:space="preserve">
<style type="text/css">
	.st0{fill:#555555;}
	.st1{fill:#FFFFFF;}
</style>
<g>
	<path class="st0" d="M7.1,0c0.1,0,0.1,0,0.2,0s0.1,0,0.2,0.1c0.9,0.2,1.8,0.4,2.7,0.6c1,0.2,2,0.4,3,0.7c0.6,0.1,1.2,0.3,1.8,0.4
		c0.3,0.1,0.5,0.4,0.4,0.7c0,0.1-0.1,0.2-0.2,0.3c-0.9,1.1-1.9,2.2-2.8,3.4c-0.9,1-1.8,2.1-2.7,3.2C9.5,9.5,9.3,9.6,9,9.5
		C8,9.2,6.9,8.9,5.9,8.6C4.9,8.3,3.8,8,2.8,7.7C2.3,7.5,2,7.7,1.9,8C1.8,8.4,1.9,8.8,2,9.1c0,0.2,0.1,0.3,0.3,0.3
		c2.3,0.7,4.6,1.4,6.9,2.1c0.1,0,0.2,0,0.3-0.1c0.5-0.6,1-1.2,1.5-1.8c1-1.3,2-2.5,3-3.8c0-0.1,0.1-0.1,0.1-0.2c0-0.4,0-0.8,0.2-1.2
		c0.1-0.2,0.2-0.3,0.5-0.4c0.2,0,0.4,0.1,0.6,0.3c0.1,0.2,0.1,0.4,0.1,0.6s-0.1,0.4,0,0.6s0.1,0.4,0,0.6c-0.3,0.9-0.4,1.7,0,2.6
		c0.1,0.3,0,0.5-0.1,0.7c-1,1.2-2,2.5-3.1,3.7c-0.7,0.8-1.3,1.6-2,2.4C10,15.9,9.7,16,9.4,16c-0.2-0.1-0.4-0.1-0.7-0.2
		C6.5,15,4.3,14.3,2,13.6c-0.2-0.1-0.4-0.2-0.6-0.3c-0.8-0.7-1-2.2-0.5-3.1C1.1,10,1.1,9.9,1,9.8C0.9,9.7,0.9,9.6,0.8,9.4
		C0.6,9,0.6,8.5,0.7,8c0-0.6,0.2-1.1,0.5-1.6c0.3-0.4,0.6-0.7,1-1.1C3.7,3.7,5.1,2,6.6,0.4C6.7,0.3,6.8,0.1,7.1,0z M13.9,8L13.9,8
		c-0.1,0-0.1,0.1-0.1,0.1c-1.2,1.5-2.4,3-3.6,4.4c-0.3,0.3-0.5,0.4-0.9,0.3c-0.9-0.3-1.9-0.6-2.8-0.9c-1.4-0.4-2.9-0.9-4.3-1.3
		c-0.1,0-0.2,0-0.2,0.1c-0.2,0.3-0.2,0.7-0.1,1.1c0.1,0.3,0.3,0.6,0.6,0.7c0.6,0.2,1.1,0.3,1.6,0.5c1.6,0.5,3.2,1,4.8,1.5
		c0.4,0.1,0.4,0.1,0.7-0.2c1.4-1.7,2.8-3.4,4.2-5.1C14,9.1,14.1,8.9,14,8.6C13.9,8.4,13.9,8.2,13.9,8z M6.9,2.1
		C6.8,2.2,6.6,2.2,6.5,2.3C6.4,2.5,6.2,2.6,6.1,2.8C6,2.9,6,3,6.2,3.1c0.1,0,0.2,0.1,0.3,0.1C7.2,3.4,8,3.6,8.7,3.7
		c0.5,0.2,1,0.3,1.6,0.4c0.3,0.1,0.5,0,0.7-0.2c0.1-0.1,0.2-0.3,0.3-0.4c0.1-0.2,0.1-0.3-0.1-0.4h-0.1C9.9,2.8,8.9,2.6,7.8,2.3
		C7.5,2.2,7.3,2.2,6.9,2.1z"/>
	<path class="st1" d="M7.1,0C6.8,0.1,6.7,0.3,6.5,0.4C5.1,2.1,3.6,3.7,2.2,5.3C1.8,5.7,1.5,6,1.2,6.4C0.8,6.9,0.7,7.4,0.7,8
		c0,0.5,0,1,0.1,1.5C0.9,9.6,0.9,9.7,1,9.8s0.1,0.2,0,0.3c-0.6,0.9-0.4,2.4,0.5,3.1c0.2,0.1,0.4,0.3,0.6,0.3
		c2.2,0.7,4.5,1.4,6.7,2.2C9,15.8,9.2,15.9,9.4,16c0.3,0.1,0.5,0,0.7-0.2c0.7-0.8,1.3-1.6,2-2.4c1-1.2,2-2.5,3.1-3.7
		c0.2-0.2,0.3-0.5,0.1-0.7c-0.4-0.9-0.3-1.7,0-2.6c0.1-0.2,0-0.4,0-0.6s0-0.4,0-0.6s0.1-0.4-0.1-0.6c-0.1-0.2-0.3-0.3-0.6-0.3
		c-0.2,0-0.4,0.2-0.5,0.4c-0.2,0.4-0.2,0.8-0.2,1.2c0,0.1,0,0.2-0.1,0.2c-1,1.3-2,2.5-3,3.8c-0.5,0.6-1,1.2-1.5,1.8
		c-0.1,0.1-0.2,0.1-0.3,0.1c-2.3-0.7-4.6-1.4-6.9-2.1C2.1,9.4,2,9.3,2,9.1C1.9,8.8,1.8,8.4,1.9,8C2,7.7,2.3,7.5,2.7,7.6
		c1,0.3,2.1,0.6,3.1,0.9C6.9,8.9,8,9.2,9,9.5c0.3,0.1,0.5,0,0.7-0.2c0.9-1.1,1.8-2.1,2.7-3.2s1.9-2.2,2.8-3.4
		c0.1-0.1,0.2-0.2,0.2-0.3c0.1-0.3-0.1-0.6-0.4-0.7c-0.6-0.1-1.2-0.3-1.8-0.4c-1-0.2-2-0.4-3-0.7C9.3,0.5,8.4,0.3,7.5,0.1
		c-0.1,0-0.1,0-0.2-0.1c2.9,0,5.8,0,8.7,0c0,5.3,0,10.7,0,16c-5.3,0-10.7,0-16,0C0,10.7,0,5.4,0,0C2.4,0,4.7,0,7.1,0z"/>
	<path class="st1" d="M13.9,8c0,0.2,0,0.4,0.1,0.6c0.1,0.3,0,0.4-0.2,0.6c-1.4,1.7-2.8,3.4-4.2,5.1c-0.3,0.3-0.3,0.3-0.7,0.2
		c-1.6-0.5-3.2-1-4.8-1.5c-0.5-0.2-1.1-0.4-1.6-0.5c-0.4-0.1-0.5-0.3-0.6-0.7S1.8,11.1,2,10.7c0.1-0.1,0.1-0.1,0.2-0.1
		c1.4,0.4,2.9,0.9,4.3,1.3c0.9,0.3,1.9,0.6,2.8,0.9c0.4,0.1,0.6,0.1,0.9-0.3c1.2-1.5,2.4-3,3.6-4.4C13.8,8.1,13.8,8,13.9,8L13.9,8z"
		/>
	<path class="st1" d="M6.9,2.1c0.3,0.1,0.6,0.1,0.9,0.2C8.9,2.6,9.9,2.8,11,3.1h0.1c0.2,0.1,0.2,0.2,0.1,0.4
		c-0.1,0.1-0.2,0.3-0.3,0.4c-0.2,0.2-0.4,0.3-0.7,0.2C9.7,4,9.2,3.9,8.6,3.8C7.9,3.6,7.2,3.4,6.5,3.2c-0.1,0-0.2-0.1-0.3-0.1
		C6,3,6,2.9,6.1,2.8c0.1-0.2,0.3-0.4,0.4-0.5S6.8,2.2,6.9,2.1z"/>
</g>
</svg>
