<?xml version="1.0" encoding="utf-8"?>
<!-- Generator: Adobe Illustrator 21.0.0, SVG Export Plug-In . SVG Version: 6.00 Build 0)  -->
<svg version="1.1" id="more" xmlns="http://www.w3.org/2000/svg" xmlns:xlink="http://www.w3.org/1999/xlink" x="0px" y="0px"
	 viewBox="0 0 32 32" style="enable-background:new 0 0 32 32;" xml:space="preserve">
<style type="text/css">
	.st0{fill:#555555;}
</style>
<path class="st0" d="M25,11H8c-1.1,0-2-0.9-2-2v0c0-1.1,0.9-2,2-2h17c1.1,0,2,0.9,2,2v0C27,10.1,26.1,11,25,11z"/>
<path class="st0" d="M25,18H8c-1.1,0-2-0.9-2-2v0c0-1.1,0.9-2,2-2h17c1.1,0,2,0.9,2,2v0C27,17.1,26.1,18,25,18z"/>
<path class="st0" d="M25,25H8c-1.1,0-2-0.9-2-2v0c0-1.1,0.9-2,2-2h17c1.1,0,2,0.9,2,2v0C27,24.1,26.1,25,25,25z"/>
</svg>
